<svg xmlns="http://www.w3.org/2000/svg" xmlns:xlink="http://www.w3.org/1999/xlink" version="1.1" x="0px" y="0px" viewBox="0 0 100 125" enable-background="new 0 0 100 100" xml:space="preserve"><path d="M68.654,16.147c-0.075-0.69-0.208-1.692-0.463-2.882c-0.604-2.828-0.947-4.437-2.1-5.658  c-1.607-1.702-6.89-2.002-7.686-2.064c-2.66-0.206-5.204-0.28-7.618-0.257l0,0h-0.79l0,0c-2.414-0.023-4.958,0.051-7.618,0.257  c-0.796,0.062-6.08,0.362-7.686,2.064c-1.152,1.221-1.496,2.83-2.1,5.658c-0.254,1.191-0.388,2.192-0.463,2.882  c-0.748,10.812-1.115,22.6-0.855,35.233c0.274,13.325,1.205,25.692,2.503,36.959c0.075,0.644,0.295,1.765,1.044,2.915  c1.197,1.836,2.946,2.524,3.552,2.732c2.056,0.266,4.234,0.488,6.526,0.643c1.762,0.12,9.218,0.12,10.981,0  c2.292-0.156,4.471-0.377,6.526-0.643c0.606-0.207,2.356-0.895,3.552-2.732c0.749-1.15,0.97-2.271,1.044-2.915  c1.298-11.267,2.23-23.634,2.503-36.959C69.769,38.747,69.402,26.959,68.654,16.147z M35.781,65.192  c-0.002-0.217,0.018-0.412,0.046-0.577c0.045-0.141,0.187-0.524,0.577-0.807c0.262-0.19,0.522-0.253,0.669-0.277  c0.284-0.046,0.637-0.075,1.038-0.046c0.762,0.055,1.357,0.295,1.73,0.484c0.641,0.273,1.504,0.746,2.307,1.569  c0.275,0.282,0.503,0.564,0.692,0.83c0.038,0.092,0.176,0.455,0.023,0.854c-0.155,0.405-0.55,0.69-1.015,0.738  c-0.423,0.08-0.937,0.142-1.523,0.138c-0.818-0.005-1.51-0.136-2.03-0.277c-0.454-0.149-1.12-0.438-1.753-1.015  c-0.258-0.235-0.463-0.474-0.623-0.692C35.85,65.881,35.784,65.566,35.781,65.192z M36.316,71.484  c-0.002-0.217,0.018-0.412,0.046-0.577c0.045-0.141,0.187-0.524,0.577-0.807c0.262-0.19,0.522-0.253,0.669-0.277  c0.284-0.046,0.637-0.075,1.038-0.046c0.762,0.055,1.357,0.295,1.73,0.484c0.641,0.273,1.504,0.746,2.307,1.569  c0.275,0.282,0.503,0.564,0.692,0.83c0.038,0.092,0.176,0.455,0.023,0.854c-0.155,0.405-0.55,0.69-1.015,0.738  c-0.423,0.08-0.937,0.142-1.523,0.138c-0.818-0.005-1.51-0.136-2.03-0.277c-0.454-0.149-1.12-0.438-1.753-1.015  c-0.258-0.235-0.463-0.474-0.623-0.692C36.384,72.173,36.319,71.858,36.316,71.484z M36.676,77.795  c-0.002-0.217,0.018-0.412,0.046-0.577c0.045-0.141,0.187-0.524,0.577-0.807c0.262-0.19,0.522-0.253,0.669-0.277  c0.284-0.046,0.637-0.075,1.038-0.046c0.762,0.055,1.357,0.295,1.73,0.484c0.641,0.273,1.504,0.746,2.307,1.569  c0.275,0.282,0.503,0.564,0.692,0.83c0.038,0.092,0.176,0.455,0.023,0.854c-0.155,0.405-0.55,0.69-1.015,0.738  c-0.423,0.08-0.937,0.142-1.523,0.138c-0.818-0.005-1.51-0.136-2.03-0.277c-0.454-0.149-1.12-0.438-1.753-1.015  c-0.258-0.235-0.463-0.474-0.623-0.692C36.745,78.484,36.679,78.169,36.676,77.795z M44.229,86.117  c-0.155,0.405-0.55,0.69-1.015,0.738c-0.423,0.08-0.937,0.142-1.523,0.138c-0.818-0.005-1.51-0.136-2.03-0.277  c-0.454-0.149-1.12-0.438-1.753-1.015c-0.258-0.235-0.463-0.474-0.623-0.692c-0.07-0.234-0.136-0.549-0.138-0.923  c-0.002-0.217,0.018-0.412,0.046-0.577c0.045-0.141,0.187-0.524,0.577-0.807c0.262-0.19,0.522-0.253,0.669-0.277  c0.284-0.046,0.637-0.075,1.038-0.046c0.762,0.055,1.357,0.295,1.73,0.484c0.641,0.273,1.504,0.746,2.307,1.569  c0.275,0.282,0.503,0.564,0.692,0.83C44.245,85.356,44.382,85.718,44.229,86.117z M54.024,86.649  c-0.261,0.339-0.866,1.028-1.894,1.437c-0.736,0.293-1.393,0.325-1.792,0.312c-0.411,0.015-1.443-0.004-2.464-0.669  c-0.615-0.4-0.993-0.883-1.203-1.203c-0.035-0.073-0.275-0.588-0.022-1.114c0.138-0.288,0.359-0.445,0.468-0.513  c0.415-0.217,0.994-0.466,1.716-0.624c0.625-0.136,1.176-0.165,1.604-0.156c0.418-0.005,0.963,0.029,1.582,0.178  c0.737,0.178,1.316,0.458,1.716,0.691c0.072,0.049,0.392,0.276,0.49,0.713C54.338,86.206,54.067,86.591,54.024,86.649z   M54.024,80.21c-0.261,0.339-0.866,1.028-1.894,1.437c-0.736,0.293-1.393,0.325-1.792,0.312c-0.411,0.015-1.443-0.004-2.464-0.669  c-0.615-0.4-0.993-0.883-1.203-1.203c-0.035-0.073-0.275-0.588-0.022-1.114c0.138-0.288,0.359-0.445,0.468-0.513  c0.415-0.217,0.994-0.466,1.716-0.624c0.625-0.136,1.176-0.165,1.604-0.156c0.418-0.005,0.963,0.029,1.582,0.178  c0.737,0.178,1.316,0.458,1.716,0.691c0.072,0.049,0.392,0.276,0.49,0.713C54.338,79.767,54.067,80.152,54.024,80.21z   M54.024,73.947c-0.261,0.339-0.866,1.028-1.894,1.437c-0.736,0.293-1.393,0.325-1.792,0.312c-0.411,0.015-1.443-0.004-2.464-0.669  c-0.615-0.4-0.993-0.883-1.203-1.203c-0.035-0.073-0.275-0.588-0.022-1.114c0.138-0.288,0.359-0.445,0.468-0.513  c0.415-0.217,0.994-0.466,1.716-0.624c0.625-0.136,1.176-0.165,1.604-0.156c0.418-0.005,0.963,0.029,1.582,0.178  c0.737,0.178,1.316,0.458,1.716,0.691c0.072,0.049,0.392,0.276,0.49,0.713C54.338,73.504,54.067,73.889,54.024,73.947z   M54.024,67.685c-0.261,0.339-0.866,1.028-1.894,1.437c-0.736,0.293-1.393,0.325-1.792,0.312c-0.411,0.015-1.443-0.004-2.464-0.669  c-0.615-0.4-0.993-0.883-1.203-1.203c-0.035-0.073-0.275-0.588-0.022-1.114c0.138-0.288,0.359-0.445,0.468-0.513  c0.415-0.217,0.994-0.466,1.716-0.624c0.625-0.136,1.176-0.165,1.604-0.156c0.418-0.005,0.963,0.029,1.582,0.178  c0.737,0.178,1.316,0.458,1.716,0.691c0.072,0.049,0.392,0.276,0.49,0.713C54.338,67.241,54.067,67.626,54.024,67.685z M63.5,85.01  c-0.16,0.218-0.364,0.457-0.623,0.692c-0.633,0.577-1.299,0.866-1.753,1.015c-0.52,0.141-1.212,0.272-2.03,0.277  c-0.585,0.004-1.1-0.058-1.523-0.138c-0.465-0.048-0.86-0.333-1.015-0.738c-0.153-0.399-0.015-0.761,0.023-0.854  c0.189-0.266,0.417-0.548,0.692-0.83c0.803-0.822,1.666-1.295,2.307-1.569c0.373-0.189,0.968-0.429,1.73-0.484  c0.401-0.029,0.754,0,1.038,0.046c0.147,0.024,0.407,0.087,0.669,0.277c0.39,0.283,0.532,0.666,0.577,0.807  c0.028,0.165,0.048,0.359,0.046,0.577C63.636,84.461,63.57,84.775,63.5,85.01z M63.972,78.718c-0.16,0.218-0.364,0.457-0.623,0.692  c-0.633,0.577-1.299,0.866-1.753,1.015c-0.52,0.141-1.212,0.272-2.03,0.277c-0.585,0.004-1.1-0.058-1.523-0.138  c-0.465-0.048-0.86-0.333-1.015-0.738c-0.153-0.399-0.015-0.761,0.023-0.854c0.189-0.266,0.417-0.548,0.692-0.83  c0.803-0.822,1.666-1.295,2.307-1.569c0.373-0.189,0.968-0.429,1.73-0.484c0.401-0.029,0.754,0,1.038,0.046  c0.147,0.024,0.407,0.087,0.669,0.277c0.39,0.283,0.532,0.666,0.577,0.807c0.028,0.165,0.048,0.359,0.046,0.577  C64.107,78.169,64.041,78.484,63.972,78.718z M64.332,72.407c-0.16,0.218-0.364,0.457-0.623,0.692  c-0.633,0.577-1.299,0.866-1.753,1.015c-0.52,0.141-1.212,0.272-2.03,0.277c-0.585,0.004-1.1-0.058-1.523-0.138  c-0.465-0.049-0.86-0.333-1.015-0.738c-0.153-0.399-0.015-0.761,0.023-0.854c0.189-0.266,0.417-0.548,0.692-0.83  c0.803-0.822,1.666-1.295,2.307-1.569c0.373-0.189,0.968-0.429,1.73-0.484c0.401-0.029,0.754,0,1.038,0.046  c0.147,0.024,0.407,0.087,0.669,0.277c0.39,0.283,0.532,0.666,0.577,0.807c0.028,0.165,0.048,0.359,0.046,0.577  C64.468,71.858,64.402,72.173,64.332,72.407z M64.867,66.115c-0.16,0.218-0.365,0.457-0.623,0.692  c-0.633,0.577-1.299,0.866-1.753,1.015c-0.52,0.141-1.212,0.272-2.03,0.277c-0.585,0.004-1.1-0.058-1.523-0.138  c-0.465-0.049-0.86-0.333-1.015-0.738c-0.153-0.399-0.015-0.761,0.023-0.854c0.189-0.266,0.417-0.548,0.692-0.83  c0.803-0.822,1.666-1.295,2.307-1.569c0.373-0.189,0.968-0.429,1.73-0.484c0.401-0.029,0.754,0,1.038,0.046  c0.147,0.024,0.407,0.087,0.669,0.277c0.39,0.283,0.532,0.666,0.577,0.807c0.028,0.165,0.048,0.359,0.046,0.577  C65.002,65.566,64.936,65.881,64.867,66.115z M67.483,46.797c-0.483,2.118-1.39,5.116-3.233,8.521  c-0.46,0.849-1.086,1.844-1.966,2.865c0,0-1.098,1.273-2.487,2.321c-4.409,3.326-9.236,3.38-9.236,3.38s-5.012,0.056-9.569-3.38  c-1.387-1.046-2.487-2.321-2.487-2.321c-0.88-1.021-1.507-2.017-1.966-2.865c-1.844-3.405-2.751-6.403-3.233-8.521  c-0.862-3.784-0.87-6.959-0.88-10.882c-0.007-2.614,0.114-4.795,0.232-6.344c0.145-3.466,0.48-7.288,1.111-11.392  c0.489-3.179,1.096-6.133,1.76-8.845c0.093-0.341,0.293-0.879,0.741-1.389c0.92-1.048,2.186-1.18,2.501-1.204  c1.245-0.196,2.543-0.368,3.89-0.509c2.748-0.288,5.337-0.409,7.736-0.417c2.399,0.008,4.988,0.128,7.736,0.417  c1.347,0.141,2.645,0.314,3.89,0.509c0.315,0.024,1.58,0.156,2.501,1.204c0.448,0.511,0.648,1.048,0.741,1.389  c0.664,2.712,1.27,5.666,1.76,8.845c0.632,4.104,0.966,7.926,1.111,11.392c0.118,1.549,0.238,3.73,0.232,6.344  C68.353,39.838,68.345,43.013,67.483,46.797z"/><path d="M65.014,17.643c-0.375-2.637-0.844-5.11-1.366-7.404C63.5,9.74,63.181,8.996,62.484,8.477  c-0.5-0.373-1.105-0.563-1.511-0.69c-0.318-0.1-0.591-0.16-0.789-0.197c-0.763-0.135-1.552-0.257-2.366-0.361  c-2.666-0.342-5.157-0.444-7.426-0.398c-2.269-0.046-4.759,0.055-7.426,0.398c-0.813,0.104-1.602,0.226-2.366,0.361  c-0.198,0.037-0.471,0.098-0.789,0.197c-0.406,0.127-1.011,0.317-1.511,0.69c-0.697,0.519-1.016,1.264-1.164,1.763  c-0.522,2.294-0.991,4.766-1.366,7.404c-0.615,4.324-0.868,8.325-0.906,11.912c-0.095,2.425-0.075,5.142,0.15,8.098  c0.226,2.965,0.621,5.662,1.084,8.05c0.184,0.939,0.613,2.501,1.708,4.14c1.103,1.65,2.393,2.647,3.192,3.175  c1.29-0.394,2.833-0.767,4.595-1.007c1.261-0.172,2.43-0.246,3.485-0.263h0.935c0.005,0,0.011,0,0.016,0v0h0.723v0  c0.005,0,0.011,0,0.016,0h0.935c1.054,0.016,2.223,0.091,3.485,0.263c1.762,0.24,3.305,0.613,4.595,1.007  c0.8-0.528,2.09-1.526,3.192-3.175c1.095-1.639,1.524-3.201,1.709-4.14c0.463-2.388,0.858-5.085,1.084-8.05  c0.225-2.955,0.245-5.673,0.15-8.098C65.882,25.968,65.629,21.967,65.014,17.643z M44.476,22.733c0-0.213,0.172-0.385,0.385-0.385  h11.063c0.213,0,0.385,0.172,0.385,0.385v1.774c0,0.213-0.172,0.385-0.385,0.385H44.862c-0.213,0-0.385-0.172-0.385-0.385V22.733z   M64.127,40.864c-0.108,2.026-0.282,3.955-0.503,5.779c-0.019,0.193-0.056,0.42-0.126,0.67c-0.073,0.264-0.164,0.488-0.251,0.67  c-0.279,0.014-0.558,0.028-0.838,0.042c-4.052,0.196-8.056,0.3-12.01,0.319v0c-0.002,0-0.005,0-0.007,0c-0.002,0-0.005,0-0.007,0v0  c-3.954-0.019-7.958-0.123-12.01-0.319c-0.279-0.014-0.559-0.028-0.838-0.042c-0.087-0.182-0.178-0.406-0.251-0.67  c-0.069-0.25-0.106-0.477-0.126-0.67c-0.22-1.824-0.395-3.753-0.503-5.779c-0.19-3.578-0.144-6.903,0.042-9.925  c-0.019-0.079-0.178-0.808,0.335-1.424c0.513-0.616,1.259-0.59,1.34-0.586l11.972-0.249c0-0.001,0-0.001,0-0.001l0.045,0  l0.045-0.001c0,0,0,0.001,0,0.002l11.972,0.249c0.081-0.004,0.827-0.029,1.34,0.586c0.513,0.616,0.354,1.345,0.335,1.424  C64.272,33.961,64.318,37.286,64.127,40.864z"/><text x="0" y="115" fill="#000000" font-size="5px" font-weight="bold" font-family="'Helvetica Neue', Helvetica, Arial-Unicode, Arial, Sans-serif">Created by Romualdas Jurgaitis</text><text x="0" y="120" fill="#000000" font-size="5px" font-weight="bold" font-family="'Helvetica Neue', Helvetica, Arial-Unicode, Arial, Sans-serif">from the Noun Project</text></svg>