<svg xmlns="http://www.w3.org/2000/svg" xmlns:xlink="http://www.w3.org/1999/xlink" xml:space="preserve" version="1.0" style="shape-rendering:geometricPrecision;text-rendering:geometricPrecision;image-rendering:optimizeQuality;" viewBox="0 0 10000 12500" x="0px" y="0px" fill-rule="evenodd" clip-rule="evenodd"><defs><style type="text/css">
   
    .fil0 {fill:black}
   
  </style></defs><g><path class="fil0" d="M5000 979c2221,0 4021,1800 4021,4021 0,2221 -1800,4021 -4021,4021 -2221,0 -4021,-1800 -4021,-4021 0,-2221 1800,-4021 4021,-4021zm-1861 1746c561,-318 1206,1287 1208,1291 13,31 6,69 -21,92 -716,629 901,2296 1552,1601 23,-25 61,-34 94,-20 4,2 1590,695 1254,1246 -1308,2150 -6293,-2954 -4087,-4210zm3161 1270c293,353 471,763 541,1185l-355 -33c-70,-333 -219,-653 -451,-933 -231,-280 -518,-486 -831,-617l33 -356c402,148 771,401 1063,754zm529 -438c414,501 650,1089 714,1690l-350 -33c-68,-512 -276,-1011 -629,-1438 -353,-426 -804,-724 -1293,-887l33 -350c577,177 1112,518 1525,1018zm-1005 832c183,221 306,470 374,730l-370 -35c-59,-168 -148,-330 -269,-476 -121,-146 -263,-264 -417,-353l35 -370c242,115 465,283 647,504z"/></g><text x="0" y="10015" fill="#000000" font-size="5px" font-weight="bold" font-family="'Helvetica Neue', Helvetica, Arial-Unicode, Arial, Sans-serif">Created by syaputraedy</text><text x="0" y="10020" fill="#000000" font-size="5px" font-weight="bold" font-family="'Helvetica Neue', Helvetica, Arial-Unicode, Arial, Sans-serif">from the Noun Project</text></svg>