<svg xmlns="http://www.w3.org/2000/svg" xmlns:xlink="http://www.w3.org/1999/xlink" version="1.1" x="0px" y="0px" viewBox="0 0 73.3 69.125" enable-background="new 0 0 73.3 55.3" xml:space="preserve"><g><path fill="#000000" d="M46,41.5c-1.1,1.2-3.2,2.8-4.2,2.3c-1.1-0.5-3.8-4.1-5.5-6.9c0,0,0,0,0,0l0.1-0.1c7-8.5,6.9-8.8,6.8-9.4   l-0.1-0.5l-0.4-0.2c-0.6-0.3-7.5-1.3-9.8-1.5c-1.4-0.1-1.9,0.4-2.2,0.8c-0.5,0.8-0.2,1.7-0.1,2l1.8,6.7l0,0.1   c0.4,0.9,0.8,1.6,1.3,2c-1.1,1.9-3.6,5.7-5.5,6.7c-2,1.1-4.4-2.4-4.4-2.4c-0.3-0.5-0.9-0.6-1.4-0.3c-0.5,0.3-0.6,0.9-0.3,1.4   c1.2,1.9,4.1,4.7,7.1,3.1c2.2-1.2,4.6-4.6,5.8-6.6c1.5,2.3,4.2,6.2,6,7c0.4,0.2,0.8,0.2,1.2,0.2c2.3,0,4.8-2.5,5.3-3.1   c0.4-0.4,0.4-1-0.1-1.4C47,41.1,46.4,41.1,46,41.5z M35,34.8L34.8,35c-0.1-0.2-0.3-0.5-0.5-0.9l-1.8-6.6l0-0.1c0,0,0-0.1,0-0.1   c0.1,0,0.2,0,0.3,0c2.1,0.2,5.9,0.8,7.9,1.1c-1.1,1.5-3.3,4.3-5.4,6.9L35,34.8z"/><path fill="#000000" d="M24.5,22.4c-0.2-1.2-1.2-1.9-2.6-2l-0.1,0c-0.5,0-1.6,0.1-2.3,0.9c-0.3,0.4-0.6,1-0.4,2   c0.3,1.6,1.3,2.5,2.6,2.5h0c0.5,0,1-0.1,1.5-0.4C24.1,24.9,24.7,23.6,24.5,22.4z M22.2,23.7c-0.2,0.1-0.4,0.2-0.6,0.2   c-0.1,0-0.5,0-0.7-0.9c0-0.2,0-0.3,0-0.3c0.1-0.1,0.4-0.2,0.8-0.2c0.7,0,0.8,0.3,0.8,0.4C22.6,23.1,22.4,23.6,22.2,23.7z"/><path fill="#000000" d="M51.6,24.5c-0.1-0.5-0.4-1.5-1.9-1.9l-0.2,0c0,0-0.2,0-0.4,0c-1.6,0-2.7,0.9-2.8,2.3c0,0.9,0.3,1.7,0.9,2.3   c0.5,0.5,1.1,0.8,1.7,0.8c0.4,0,0.7-0.1,1.1-0.3C50.7,27.1,51.8,25.8,51.6,24.5z M48.9,26.9v-1c0,0,0,0,0,0L48.9,26.9z M48.9,25.9   c0,0-0.2-0.1-0.3-0.2c-0.1-0.1-0.3-0.4-0.3-0.9c0-0.1,0-0.4,0.8-0.4c0,0,0.1,0,0.1,0c0.2,0.1,0.4,0.2,0.4,0.2   C49.6,25,49.2,25.7,48.9,25.9z"/><path fill="#000000" d="M73,40.1c-1.3-1.1-4.2-2.1-7.5-3c1-2.7,1.5-6.4,0.3-11.6c-0.3-1.3-0.7-2.6-1.2-3.8c1.1-3.9,5-19.7-0.5-21.5   c-5-1.6-11.3,5.1-12.3,6.2C50,5.5,44,3.3,37.1,3.3c-3,0-5.8,0.4-8.3,1.2l-0.1,0c-0.1,0-0.4,0.2-0.9,0.5c-0.1-0.1-0.2-0.2-0.3-0.2   C24.4,3.4,17,0,15.6,0c0,0,0,0,0,0c-0.1,0-0.3,0-0.4,0c-1.3,0-3.4,0-4.5,3c-1,2.8-1.7,14.2,0.4,19.1c0,0,0,0,0,0   C9.3,25,8.3,28.3,8.9,33.1c-3.1,0.8-6.4,1.8-8.3,2.8c-0.5,0.3-0.7,0.9-0.4,1.4c0.2,0.3,0.5,0.5,0.9,0.5c0.2,0,0.3,0,0.5-0.1   c1.8-0.9,4.7-1.8,7.7-2.6c0.3,1.7,0.8,3.2,1.4,4.6c-3.9,1.9-7.7,3.9-8.3,4.3c-0.5,0.3-0.6,0.9-0.4,1.4c0.2,0.3,0.5,0.5,0.9,0.5   c0.2,0,0.3,0,0.5-0.1c1.6-0.9,4.9-2.6,8.2-4.2c0.6,1.1,1.2,2.1,1.9,3.1c-2.1,1.4-4.5,3.1-5.4,4.3c-0.3,0.4-0.3,1.1,0.2,1.4   c0.2,0.1,0.4,0.2,0.6,0.2c0.3,0,0.6-0.1,0.8-0.4c0.8-1,3-2.6,5.1-4c2.1,2.4,4.2,3.9,5.5,4.4c0.2,0.1,0.6,0.3,1.1,0.5   c2.9,1.3,9.8,4.4,17.1,4.4h0c2.2,0,4.3-0.3,6.2-0.9c5.5-1.6,9.5-4,12.3-6.1c2.6,1.6,5.3,3.1,6.7,3.6c0.1,0,0.2,0.1,0.3,0.1   c0.4,0,0.8-0.3,0.9-0.7c0.2-0.5-0.1-1.1-0.6-1.3c-1.1-0.4-3.4-1.7-5.7-3.1c1.1-1,1.9-1.9,2.5-2.6c2.8,1,5.3,2,6.2,2.5   c0.2,0.1,0.3,0.1,0.5,0.1c0.3,0,0.7-0.2,0.9-0.5c0.3-0.5,0.1-1.1-0.4-1.4c-1-0.6-3.4-1.5-6-2.4c0.1-0.2,0.3-0.4,0.5-0.6   c0.6-0.8,1.4-1.9,2.1-3.2c3.2,0.9,5.9,1.9,7,2.8c0.2,0.1,0.4,0.2,0.6,0.2c0.3,0,0.6-0.1,0.8-0.4C73.5,41,73.4,40.4,73,40.1z    M63.5,2.1c2.5,0.8,1.5,9.6-0.2,16.6c-0.1-0.3-0.3-0.5-0.4-0.7c2.1-10,0.7-12.2-0.4-12.6l-0.3-0.1c-1.4-0.1-4.9,2-7,3.4   c-0.6-0.5-1.1-0.9-1.6-1.2C55.6,5.4,60.4,1.2,63.5,2.1z M61.4,15.5c-1.5-2.1-3.1-4-4.6-5.4c1.9-1.2,4-2.3,5-2.7   C62,8.1,62.3,10.2,61.4,15.5z M45.2,9.5c0.3-1.7,0.4-2.6,0.3-3.1c2.1,0.5,3.8,1.1,4.8,1.5c-0.9,2.5-4.4,8.1-6,9.5   C44.2,15.6,44.9,11.3,45.2,9.5z M37.1,5.3c2.4,0,4.7,0.3,6.7,0.7c-0.3,0.3-0.5,0.9-0.7,1.5c-1.1,3.3-2.5,6.4-3.5,7.9   c-0.1-0.7-0.1-1.4-0.2-2.1c-0.6-5.9-0.8-7.5-2-7.7c-0.2,0-0.9-0.1-1.4,0.7c-0.4,0.7-1.2,2.2-2.1,3.9c-0.8,1.5-1.8,3.5-2.7,5   c-0.2-2.1-0.4-5.7-0.6-9C32.7,5.6,34.8,5.3,37.1,5.3z M12.5,3.7C13.2,2,14,2,15.1,2c0.2,0,0.3,0,0.4,0c0.8,0.1,5.6,2.1,10.2,4.2   c-1.1,0.6-2.3,1.5-3.6,2.5c-4.8-4.4-8-2.6-8.2-2.5l-0.4,0.2l-0.1,0.5c-0.1,0.8-1.2,7.6,0.7,10.7c-0.1,0.1-0.1,0.1-0.2,0.2   c-0.5,0.7-1.1,1.4-1.6,2.1C11.1,15.1,11.7,5.9,12.5,3.7z M20.5,10c-1.6,1.4-3.1,3-4.4,4.8c-0.2,0.3-0.5,0.7-0.7,1   c-0.7-2.2-0.4-6-0.2-7.9C16.1,7.7,17.9,7.7,20.5,10z M61,40.9c-0.3,0.4-0.6,0.8-0.8,1.1c0,0,0,0,0,0.1c-3.6-1.3-7-2.4-7.3-2.5   c-0.5-0.2-1.1,0.1-1.3,0.6c-0.2,0.5,0.1,1.1,0.6,1.3c1.7,0.6,4.2,1.4,6.6,2.3c-0.6,0.7-1.3,1.4-2.2,2.2c-1.9-1.2-3.7-2.3-4.7-3   c-0.5-0.3-1.1-0.2-1.4,0.3c-0.3,0.5-0.2,1.1,0.3,1.4c0.2,0.1,1.9,1.3,4.2,2.7c-2.6,1.9-6.2,3.9-11.1,5.3c-1.7,0.5-3.7,0.8-5.7,0.8   h0c-6.9,0-13.5-3-16.3-4.2c-0.5-0.2-0.9-0.4-1.2-0.5C19.7,48.2,18,47,16.2,45c1-0.6,1.9-1.2,2.5-1.5c0.5-0.3,0.6-0.9,0.4-1.4   c-0.3-0.5-0.9-0.6-1.4-0.4c-0.3,0.2-1.4,0.8-2.8,1.7c-0.6-0.9-1.2-1.8-1.8-2.9c3.5-1.7,6.6-3.2,7.1-3.4c0.4-0.1,0.7-0.5,0.7-1   c0-0.6-0.4-1-1-1c-0.4,0-3.9,1.7-7.7,3.6c-0.5-1.3-0.9-2.7-1.2-4.2c3.8-0.9,7.2-1.5,7.2-1.5c0.5-0.1,0.9-0.6,0.8-1.2   c-0.1-0.5-0.6-0.9-1.2-0.8c-0.3,0-3.5,0.6-7.2,1.5c-0.6-6.3,1.8-9.5,4.8-13.5c0.7-1,1.5-2,2.3-3.2c3.2-4.7,8.8-7.9,10.9-9   c0.5,10.4,1,11,1.2,11.3l0.4,0.5l0.6,0c0.9-0.1,1.4-0.7,4.9-7.5c0.4-0.8,0.8-1.6,1.2-2.3c0.2,1.4,0.4,3.4,0.5,4.7   c0.2,2.2,0.3,3.5,0.5,4c0.2,0.7,0.7,0.9,1.2,0.9c1,0,2.2-1.8,3.3-3.9c-0.3,3.3-0.1,4.5,0.7,5c0.2,0.1,0.4,0.2,0.8,0.2   c0.2,0,0.4,0,0.6-0.1c2.3-0.9,6.3-7.9,7.5-10.7c2.1,1.4,6.1,4.8,9,9.8c0,0,0,0,0,0.1c1.2,2.1,2.2,4.5,2.8,7.2   c1.1,4.8,0.6,8.1-0.3,10.6c-5-1.3-10.3-2.3-11.2-2.5c-0.5-0.1-1.1,0.3-1.2,0.8c-0.1,0.5,0.3,1.1,0.8,1.2c2.3,0.4,6.6,1.3,10.7,2.3   C62.1,39.3,61.5,40.2,61,40.9z"/></g><text x="0" y="70.3" fill="#000000" font-size="5px" font-weight="bold" font-family="'Helvetica Neue', Helvetica, Arial-Unicode, Arial, Sans-serif">Created by Dilla Chee</text><text x="0" y="75.3" fill="#000000" font-size="5px" font-weight="bold" font-family="'Helvetica Neue', Helvetica, Arial-Unicode, Arial, Sans-serif">from the Noun Project</text></svg>