<svg xmlns="http://www.w3.org/2000/svg" xmlns:xlink="http://www.w3.org/1999/xlink" version="1.1" x="0px" y="0px" viewBox="0 0 66 82.5" enable-background="new 0 0 66 66" xml:space="preserve"><g><path d="M40.4,37.4c-2.8,0-5,2.3-5,5s2.3,5,5,5s5-2.3,5-5S43.2,37.4,40.4,37.4z"/><path d="M65,16.5V9.1c0-2-1.6-3.7-3.7-3.7H4.7C2.7,5.4,1,7.1,1,9.1v7.4H65z M55.5,10.1c1.1,0,2,0.9,2,2s-0.9,2-2,2s-2-0.9-2-2   S54.3,10.1,55.5,10.1z M47.4,10.1c1.1,0,2,0.9,2,2s-0.9,2-2,2c-1.1,0-2-0.9-2-2S46.3,10.1,47.4,10.1z M39.4,10.1c1.1,0,2,0.9,2,2   s-0.9,2-2,2s-2-0.9-2-2S38.3,10.1,39.4,10.1z M11.1,11.1h20.9c0.6,0,1,0.4,1,1s-0.4,1-1,1H11.1c-0.6,0-1-0.4-1-1   S10.6,11.1,11.1,11.1z"/><path d="M1,18.5v38.4c0,2,1.7,3.7,3.7,3.7h56.6c2,0,3.7-1.7,3.7-3.7V18.5H1z M7.5,23.4h11.3c0.6,0,1,0.4,1,1s-0.4,1-1,1H7.5   c-0.6,0-1-0.4-1-1S6.9,23.4,7.5,23.4z M19.1,47H7.5c-0.6,0-1-0.4-1-1s0.4-1,1-1h11.7c0.6,0,1,0.4,1,1S19.7,47,19.1,47z M24.9,41.5   H7.5c-0.6,0-1-0.4-1-1s0.4-1,1-1h17.4c0.6,0,1,0.4,1,1S25.4,41.5,24.9,41.5z M24.9,36.1H7.5c-0.6,0-1-0.4-1-1s0.4-1,1-1h17.4   c0.6,0,1,0.4,1,1S25.4,36.1,24.9,36.1z M24.9,30.7H7.5c-0.6,0-1-0.4-1-1s0.4-1,1-1h17.4c0.6,0,1,0.4,1,1S25.4,30.7,24.9,30.7z    M59.3,27.2c-0.4,0.4-1,0.4-1.4,0l-0.9-0.9v16.1c0,0.6-0.4,1-1,1h-3v0.9c0,0.5-0.4,0.9-0.9,1l-2.7,0.4c-0.1,0.2-0.2,0.5-0.3,0.7   l1.6,2.2c0.3,0.4,0.3,1-0.1,1.3l-2.7,2.7C47.5,53,47,53,46.6,52.7l-2.2-1.6c-0.2,0.1-0.5,0.2-0.7,0.3l-0.4,2.7   c-0.1,0.5-0.5,0.9-1,0.9h-3.8c-0.5,0-0.9-0.4-1-0.9l-0.4-2.7c-0.2-0.1-0.5-0.2-0.7-0.3l-2.2,1.6c-0.4,0.3-1,0.3-1.3-0.1l-2.7-2.7   c-0.4-0.4-0.4-0.9-0.1-1.3l1.6-2.2c-0.1-0.2-0.2-0.5-0.3-0.7l-2.7-0.4c-0.5-0.1-0.9-0.5-0.9-1v-3.8c0-0.5,0.4-0.9,0.9-1l2.7-0.4   c0.1-0.2,0.2-0.5,0.3-0.7l-1.6-2.2c-0.3-0.4-0.3-1,0.1-1.3l2.7-2.7c0.4-0.4,0.9-0.4,1.3-0.1l2.2,1.6c0.2-0.1,0.5-0.2,0.7-0.3   l0.4-2.7c0.1-0.5,0.5-0.9,1-0.9h3.8c0.5,0,0.9,0.4,1,0.9l0.4,2.7c0.2,0.1,0.5,0.2,0.7,0.3l2.2-1.6c0.4-0.3,1-0.3,1.3,0.1l2.7,2.7   c0.4,0.4,0.4,0.9,0.1,1.3l-1.6,2.2c0.1,0.2,0.2,0.5,0.3,0.7l2.7,0.4c0.5,0.1,0.9,0.5,0.9,1v0.9h2V26.3l-0.8,0.8   c-0.4,0.4-1,0.4-1.4,0s-0.4-1,0-1.4l2.5-2.5c0.2-0.2,0.4-0.3,0.7-0.3c0.3,0,0.5,0.1,0.7,0.3l2.6,2.6C59.7,26.1,59.7,26.8,59.3,27.2   z"/></g><text x="0" y="81" fill="#000000" font-size="5px" font-weight="bold" font-family="'Helvetica Neue', Helvetica, Arial-Unicode, Arial, Sans-serif">Created by ProSymbols</text><text x="0" y="86" fill="#000000" font-size="5px" font-weight="bold" font-family="'Helvetica Neue', Helvetica, Arial-Unicode, Arial, Sans-serif">from the Noun Project</text></svg>