<svg xmlns="http://www.w3.org/2000/svg" data-name="Layer 1" viewBox="0 0 100 125" x="0px" y="0px"><title>Artboard 160</title><g><path d="M54.22,90.69,56,78.29c-1.54.41-3,.77-3,.77l3.1-1.77L58.51,61c-1.75.41-4,.79-4,.79s2.32-.89,4.08-1.37l1.66-11.52-2,.76-3.13-1.41,2.65.12,2.8-2,1.59-11a7.06,7.06,0,0,0-2.51-6.47,17,17,0,0,0-7.22-3.38q.06-1,.08-2c.12-1.43.25-2.85.4-4.28a16.84,16.84,0,0,1,1.36-5.5,49.61,49.61,0,0,1,3.14-5.1L54,6.79a80.28,80.28,0,0,1-2.73,7.88c-.33-2.06-.78-9-.78-9l-2.93.93c.61,2.51,2,9,2.29,11.57C48.94,16,45.94,7.88,45.94,7.88L43.32,9.54s4.27,8.66,5.23,15.71c-3.78.31-7.8,3.11-10,6.62a7.06,7.06,0,0,0-1,5l1,5.19c2.11,1.28,4.77,2.74,6.11,2.76a48,48,0,0,1,5.46.54s-3.92,1.72-6.44,1.15a30.08,30.08,0,0,1-4.6-1.63L40,49.58l3.09,1-2.88.07,2.27,12.07a13.37,13.37,0,0,0,3.18,2,8.63,8.63,0,0,0,4.89-.18s-3,2.19-7.61.59l3.41,18.13,2.1.44,4.11-.48-4,1.39-2-.1,1.14,6.06a3.35,3.35,0,0,0,6.52.05Z"/><path d="M94,41.24a17.16,17.16,0,0,0-.23-2.18c-.05-.29-.11-.61-.19-.92-.13-1-.27-1.95-.42-2.92-.11-.73-.23-1.46-.34-2.19a9.76,9.76,0,0,0-.3-1.43c-.19-2.52-2.43-4.52-4.51-5.67-.7-.38-1.42-.72-2.14-1.06A4.85,4.85,0,0,0,84,24.36a2.57,2.57,0,0,0-2.23,1.52l-.3.26c-.36.3-.74.58-1.06.92A1.6,1.6,0,0,0,80,29,12.12,12.12,0,0,0,81.62,31l1,1.16a4.79,4.79,0,0,0,1.1.91,4.53,4.53,0,0,0,1.91-.27l.23-.07a25.58,25.58,0,0,0,2.94.61h0a5.15,5.15,0,0,1-.4,2,9.14,9.14,0,0,1-.39,1c-1.56.91-3.74,6.18-4,7.09-.15.46-.27.92-.39,1.39,0,.17-.09.35-.13.52A7.06,7.06,0,0,0,81,42.72a7.21,7.21,0,0,0-3.38-1.24,6.38,6.38,0,0,0-5.28,1.93,6.84,6.84,0,0,0-3.61-2.22,6.68,6.68,0,0,0-2.42-.11,4.31,4.31,0,0,0-1.72.52l-.51-.72a.32.32,0,0,0-.56.16c-.72,3-1.24,6-1.81,9-.14.73-.28,1.46-.42,2.2a1.64,1.64,0,0,0,.12,1.34,2.27,2.27,0,0,0,2.05.76c.93-.31,2.05.09,2.91-.37A10.64,10.64,0,0,0,69.6,55.7a16.4,16.4,0,0,0,3.69.9,17.3,17.3,0,0,0,3.71.07,10.8,10.8,0,0,0,3.71-.8c.17-.08.24-.42.25-.42a12,12,0,0,1,1.94.53,5.7,5.7,0,0,0,1.7.91c.19.05.82.25,1,.3,1.33.54,5.13-1.82,4.72-3.42a.45.45,0,0,0,.13-.12,20.07,20.07,0,0,0,3.31-8.1A19.81,19.81,0,0,0,94,41.24ZM82.13,45.71a.28.28,0,0,1-.39-.08A5.41,5.41,0,0,0,78,43.57a5.83,5.83,0,0,0-4.49.93.28.28,0,1,1-.35-.44,6.4,6.4,0,0,1,4.93-1,5.89,5.89,0,0,1,4.08,2.31A.28.28,0,0,1,82.13,45.71Z"/><path d="M6.49,46.75a20.07,20.07,0,0,0,3.31,8.1.45.45,0,0,0,.13.12c-.41,1.6,3.39,4,4.72,3.42.13-.05.76-.25,1-.3a5.69,5.69,0,0,0,1.7-.91,12,12,0,0,1,1.94-.53s.08.34.25.42a10.8,10.8,0,0,0,3.71.8,17.3,17.3,0,0,0,3.71-.07,16.4,16.4,0,0,0,3.69-.9,10.64,10.64,0,0,0,3.22-1.74c.86.45,2,.05,2.91.37a2.27,2.27,0,0,0,2.05-.76,1.64,1.64,0,0,0,.12-1.34l-.42-2.2c-.57-3-1.09-6-1.81-9a.32.32,0,0,0-.56-.16l-.51.72a4.31,4.31,0,0,0-1.72-.52,6.68,6.68,0,0,0-2.42.11,6.84,6.84,0,0,0-3.61,2.22,6.38,6.38,0,0,0-5.28-1.93,7.21,7.21,0,0,0-3.38,1.24,7.06,7.06,0,0,0-2.43,2.65c0-.18-.09-.35-.13-.52-.11-.47-.24-.93-.39-1.39-.29-.91-2.47-6.19-4-7.09a9.16,9.16,0,0,1-.39-1,5.16,5.16,0,0,1-.4-2h0A25.61,25.61,0,0,0,14.37,34l.23.07a4.53,4.53,0,0,0,1.91.27,4.8,4.8,0,0,0,1.1-.92l1-1.16a12.13,12.13,0,0,0,1.67-2.1,1.6,1.6,0,0,0-.46-1.9c-.33-.33-.71-.62-1.06-.92l-.3-.26a2.57,2.57,0,0,0-2.23-1.52,4.85,4.85,0,0,0-1.83.52c-.72.33-1.44.67-2.14,1.06-2.08,1.14-4.32,3.14-4.51,5.67a9.77,9.77,0,0,0-.3,1.43c-.12.73-.24,1.46-.34,2.19-.14,1-.29,1.94-.42,2.92-.08.31-.13.63-.19.92a17.16,17.16,0,0,0-.23,2.18A19.81,19.81,0,0,0,6.49,46.75ZM18,46.54a5.89,5.89,0,0,1,4.08-2.31,6.4,6.4,0,0,1,4.93,1,.28.28,0,0,1-.35.44,5.83,5.83,0,0,0-4.49-.93,5.41,5.41,0,0,0-3.7,2.06.28.28,0,1,1-.47-.31Z"/></g><text x="0" y="115" fill="#000000" font-size="5px" font-weight="bold" font-family="'Helvetica Neue', Helvetica, Arial-Unicode, Arial, Sans-serif">Created by Bart Laubsch</text><text x="0" y="120" fill="#000000" font-size="5px" font-weight="bold" font-family="'Helvetica Neue', Helvetica, Arial-Unicode, Arial, Sans-serif">from the Noun Project</text></svg>