<svg xmlns="http://www.w3.org/2000/svg" xmlns:xlink="http://www.w3.org/1999/xlink" version="1.1" x="0px" y="0px" viewBox="0 0 64 80" style="enable-background:new 0 0 64 64;" xml:space="preserve"><g><rect x="23" y="47" width="2" height="2"/><rect x="19" y="47" width="2" height="2"/><rect x="15" y="47" width="2" height="2"/><path d="M59.449,17.61C60.462,15.919,61,14.005,61,12c0-3.124-1.336-6.112-3.665-8.197c-2.327-2.083-5.452-3.077-8.586-2.733   c-1.98,0.219-3.8,0.977-5.322,2.115C39.792,1.74,35.952,1,32,1c-7.709,0-15.068,2.842-20.776,8H5v7.774C2.387,21.399,1,26.655,1,32   c0,17.093,13.907,31,31,31s31-13.907,31-31C63,26.983,61.766,22.025,59.449,17.61z M51.969,53c-1.512,1.439-3.174,2.722-4.968,3.81   V53H51.969z M31.067,51v2H45v4H29v-6H16c-1.654,0-3-1.346-3-3v-3h11.697l3,2h29.113c-0.861,1.419-1.846,2.753-2.93,4H31.067z    M28.303,45l-3-2H13V29h2v12h24V21H29v-2h12.467c0.493,0.738,0.926,1.499,1.28,2.283C41.719,21.759,41,22.794,41,24   c0,1.654,1.346,3,3,3h1v9.303l5,7.5l5-7.5V27h1c1.654,0,3-1.346,3-3c0-1.227-0.742-2.282-1.8-2.746   c0.278-0.619,0.598-1.21,0.962-1.768C60.019,23.371,61,27.662,61,32c0,4.673-1.117,9.087-3.089,13H28.303z M17,29h12v-6h8v16H17V29   z M11.766,27l3.548-5.913C16.086,19.8,17.499,19,19,19s2.914,0.8,3.686,2.087L26.234,27H11.766z M50,14c-1.103,0-2-0.897-2-2   s0.897-2,2-2s2,0.897,2,2S51.103,14,50,14z M56,23c0.551,0,1,0.449,1,1s-0.449,1-1,1H44c-0.551,0-1-0.449-1-1s0.449-1,1-1H56z    M49,27v8h-2v-8H49z M52.132,37L50,40.197L47.868,37H52.132z M53,35h-2v-8h2V35z M48.969,3.058c2.607-0.289,5.1,0.506,7.032,2.235   C57.907,6.999,59,9.444,59,12c0,2-0.644,3.892-1.863,5.473c-0.818,1.062-1.48,2.25-1.994,3.527H51v-5.142c1.72-0.447,3-2,3-3.858   c0-2.206-1.794-4-4-4s-4,1.794-4,4c0,1.858,1.28,3.411,3,3.858V21h-4.206c-0.534-1.296-1.226-2.549-2.083-3.729   c-1.291-1.775-1.882-3.97-1.667-6.178C41.454,6.899,44.787,3.52,48.969,3.058z M32,3c3.372,0,6.657,0.571,9.788,1.695   c-1.504,1.69-2.502,3.838-2.734,6.204c-0.208,2.125,0.207,4.237,1.161,6.102H29V9H14.335C19.385,5.115,25.563,3,32,3z M7,11h20   v13.39l-2.599-4.332C23.269,18.172,21.2,17,19,17s-4.269,1.172-5.401,3.058L9.434,27H7V11z M3,32c0-3.63,0.692-7.214,2-10.562V29h6   v19c0,2.757,2.243,5,5,5h11v4h-4v2h19.562c-3.276,1.286-6.836,2-10.562,2C16.009,61,3,47.991,3,32z"/><path d="M12,19c1.654,0,3-1.346,3-3s-1.346-3-3-3s-3,1.346-3,3S10.346,19,12,19z M12,15c0.551,0,1,0.449,1,1s-0.449,1-1,1   s-1-0.449-1-1S11.449,15,12,15z"/><rect x="19" y="31" width="16" height="2"/><rect x="19" y="35" width="12" height="2"/><rect x="33" y="35" width="2" height="2"/></g><text x="0" y="79" fill="#000000" font-size="5px" font-weight="bold" font-family="'Helvetica Neue', Helvetica, Arial-Unicode, Arial, Sans-serif">Created by Eucalyp</text><text x="0" y="84" fill="#000000" font-size="5px" font-weight="bold" font-family="'Helvetica Neue', Helvetica, Arial-Unicode, Arial, Sans-serif">from the Noun Project</text></svg>