<svg xmlns="http://www.w3.org/2000/svg" xmlns:xlink="http://www.w3.org/1999/xlink" version="1.0" x="0px" y="0px" viewBox="0 0 100 125" enable-background="new 0 0 100 100" xml:space="preserve"><path d="M36.667,9.999c-5.521,0-10,4.476-10,10c0,5.521,4.479,10,10,10c5.521,0,10-4.479,10-10  C46.667,14.475,42.188,9.999,36.667,9.999z M36.667,23.333c-1.843,0-3.334-1.494-3.334-3.333c0-1.842,1.491-3.333,3.334-3.333  c1.842,0,3.333,1.491,3.333,3.333C40,21.838,38.509,23.333,36.667,23.333z"/><path d="M74.216,68.828c-2.777,0-5.603-0.527-8.324-1.65v-0.003L60,64.733V49.999c0-7.367-5.97-13.333-13.333-13.333h-20L10,43.57  v7.672l16.667,6.902v31.856h6.666V70H40v20.001h6.667V66.433l16.673,6.901c3.255,7.858,9.388,13.652,16.67,16.667  c5.843-5.84,9.99-13.51,9.99-21.173H74.216z M26.667,50.93l-8.51-3.522l8.51-3.525V50.93z M40,56.452l-6.667-2.761V43.332H40V56.452  z M53.333,61.973l-6.666-2.76V43.332c3.682,0,6.666,2.985,6.666,6.667V61.973z"/><path d="M80,60c0,1.836-1.497,3.334-3.333,3.334S73.333,61.836,73.333,60s1.498-3.333,3.334-3.333S80,58.164,80,60z"/><circle cx="88.333" cy="61.667" r="1.667"/><circle cx="85" cy="51.667" r="1.667"/><text x="0" y="115" fill="#000000" font-size="5px" font-weight="bold" font-family="'Helvetica Neue', Helvetica, Arial-Unicode, Arial, Sans-serif">Created by Danil Polshin</text><text x="0" y="120" fill="#000000" font-size="5px" font-weight="bold" font-family="'Helvetica Neue', Helvetica, Arial-Unicode, Arial, Sans-serif">from the Noun Project</text></svg>