<?xml version="1.0" standalone="no"?>
<!DOCTYPE svg PUBLIC "-//W3C//DTD SVG 20010904//EN"
 "http://www.w3.org/TR/2001/REC-SVG-20010904/DTD/svg10.dtd">
<svg version="1.0" xmlns="http://www.w3.org/2000/svg"
 width="1000.000000pt" height="1000.000000pt" viewBox="0 0 1000.000000 1000.000000"
 preserveAspectRatio="xMidYMid meet">
<metadata>
Created by potrace 1.11, written by Peter Selinger 2001-2013
</metadata>
<g transform="translate(0.000000,1000.000000) scale(0.100000,-0.100000)"
fill="#000000" stroke="none">
<path d="M4134 9933 c-177 -205 -229 -292 -322 -533 -111 -289 -140 -342 -279
-517 -111 -140 -199 -280 -371 -588 -628 -1131 -1197 -2369 -1374 -2990 l-61
-212 -57 23 c-87 35 -245 64 -353 64 -328 0 -615 -149 -727 -376 -17 -36 -30
-67 -28 -70 3 -2 47 7 99 21 52 13 97 25 102 25 18 0 2 -32 -59 -114 -73 -99
-94 -140 -94 -186 0 -27 3 -30 30 -30 48 0 88 26 185 120 76 73 136 112 151
98 8 -9 -34 -73 -97 -149 -82 -97 -108 -148 -116 -226 l-6 -56 32 6 c48 10
111 58 233 176 104 101 168 152 168 135 0 -4 -24 -50 -53 -103 -69 -124 -95
-182 -112 -256 -21 -88 -20 -104 7 -97 47 11 99 57 188 162 129 153 203 198
288 171 66 -20 64 -14 46 -157 -23 -176 -23 -532 0 -709 65 -499 241 -958 503
-1309 l60 -79 -15 -41 c-9 -23 -17 -89 -20 -152 -5 -137 16 -234 82 -370 l43
-90 -51 4 c-109 9 -242 -35 -277 -92 -27 -44 -24 -77 14 -132 27 -41 47 -56
122 -94 100 -50 251 -102 365 -126 121 -25 464 -30 640 -10 241 28 414 72 425
107 9 26 -1 84 -31 189 -13 46 -24 100 -24 118 l0 35 108 -8 c59 -4 120 -8
135 -9 25 -1 32 -9 63 -81 37 -84 104 -251 104 -259 0 -16 -74 -38 -170 -51
-110 -14 -155 -29 -180 -60 -12 -14 12 -15 254 -13 146 2 266 6 266 10 0 22
-47 121 -100 207 -33 55 -67 118 -75 142 -20 56 -20 168 1 197 22 32 93 65
207 97 54 15 119 41 145 58 l47 30 -35 15 c-56 23 -172 12 -240 -23 -71 -36
-123 -72 -196 -135 -58 -51 -60 -51 -114 -46 -30 2 -102 12 -160 21 -89 14
-193 15 -206 2 -2 -2 17 -49 41 -106 51 -114 75 -202 75 -274 l0 -48 -57 -26
c-51 -24 -73 -27 -240 -34 -101 -5 -199 -12 -218 -18 -26 -7 -49 -5 -97 11
-35 10 -142 33 -238 49 -227 38 -319 62 -407 103 -73 35 -163 108 -163 132 0
23 81 38 212 38 l128 0 44 -43 c29 -29 50 -42 60 -38 34 13 10 65 -111 249
-114 171 -137 227 -137 333 -1 67 3 89 27 139 l28 60 56 -57 c57 -58 502 -362
598 -410 88 -43 198 -78 250 -80 47 -1 95 15 95 31 0 4 -36 20 -80 35 -103 37
-371 170 -485 242 -114 72 -330 235 -416 314 -56 51 -85 92 -188 264 -219 369
-300 570 -331 822 -6 50 -19 133 -30 185 -78 397 -43 804 124 1440 29 113 79
303 110 422 l57 217 263 593 c146 326 283 634 306 683 23 50 73 164 112 255
82 192 117 262 206 420 36 63 154 288 262 500 243 475 328 621 465 795 l47 60
-8 -40 c-12 -56 -9 -96 7 -106 7 -4 14 -7 16 -6 1 1 23 70 48 152 115 370 280
731 421 921 54 73 83 96 139 108 l30 6 28 -87 c34 -109 35 -180 6 -411 -22
-174 -22 -300 0 -340 19 -36 37 -12 57 75 9 42 25 84 35 94 29 29 106 26 154
-6 45 -31 27 -50 175 181 128 198 198 287 277 349 l57 44 24 -72 c36 -103 35
-244 -2 -382 -15 -55 -35 -118 -46 -140 -10 -22 -28 -63 -40 -91 l-21 -52 47
-98 c25 -54 94 -242 153 -419 l106 -322 -40 18 c-59 27 -155 21 -155 -10 0
-15 148 -81 189 -84 42 -3 42 -3 74 -77 18 -41 52 -107 75 -147 43 -73 50 -93
32 -93 -21 0 -113 -96 -136 -142 -92 -181 -60 -462 63 -555 88 -67 195 -28
304 109 l37 48 27 -83 c39 -119 97 -235 145 -289 25 -29 66 -59 106 -79 35
-17 64 -37 64 -44 0 -6 -9 -20 -20 -30 -11 -10 -20 -24 -20 -31 0 -15 87 -23
269 -23 223 0 308 -29 426 -146 99 -98 119 -143 123 -276 6 -185 -47 -402
-144 -590 -59 -115 -121 -195 -227 -296 -472 -446 -1338 -573 -1922 -280 -259
129 -510 294 -635 419 -305 301 -559 774 -666 1239 -18 81 -41 166 -50 190
-20 50 -83 153 -90 147 -6 -7 34 -221 67 -353 199 -789 617 -1365 1204 -1658
284 -142 568 -211 919 -226 l160 -6 26 -45 c80 -136 131 -300 195 -615 144
-714 169 -1134 94 -1579 -20 -116 -45 -204 -123 -423 -49 -136 -55 -209 -27
-299 141 -437 587 -781 1327 -1024 169 -55 413 -120 532 -141 87 -15 100 -7
76 50 -8 19 -11 38 -7 42 14 12 219 119 229 119 6 0 16 -15 22 -34 10 -28 23
-38 67 -56 30 -12 55 -27 55 -32 0 -5 -15 -24 -34 -41 -41 -39 -51 -88 -33
-172 11 -55 15 -61 50 -78 131 -61 364 -78 777 -57 135 7 265 11 290 9 l45 -4
-70 -26 c-178 -67 -390 -97 -546 -78 -52 7 -114 11 -138 10 -70 -3 -179 17
-369 69 -227 61 -242 65 -242 50 0 -23 66 -77 115 -95 156 -56 203 -98 63 -55
-147 45 -234 108 -281 203 -26 53 -27 54 -79 61 -85 11 -394 74 -498 102 -692
185 -1158 470 -1427 874 -28 41 -62 99 -77 128 -14 28 -28 52 -30 52 -2 0 -39
-29 -82 -65 -154 -129 -365 -255 -467 -280 -15 -4 -27 -13 -27 -20 0 -25 32
-101 92 -221 52 -104 61 -130 62 -179 l1 -58 -83 -34 c-107 -43 -243 -78 -384
-99 -137 -20 -498 -14 -643 10 -49 9 -114 18 -142 22 l-53 7 -16 -39 c-16 -37
-17 -38 -25 -16 -11 29 -72 55 -117 50 -31 -4 -38 1 -89 61 -56 66 -97 101
-120 101 -21 0 -15 -65 8 -94 26 -34 144 -89 237 -111 39 -9 72 -21 72 -25 0
-25 -47 -61 -108 -81 -81 -26 -122 -46 -122 -59 0 -31 171 -86 419 -135 176
-35 200 -46 81 -37 -152 11 -231 8 -270 -13 -31 -16 -32 -19 -15 -25 43 -16
318 -61 465 -76 208 -21 505 -15 600 13 90 26 155 63 155 88 0 18 -8 20 -95
23 -142 4 -145 24 -6 36 61 5 106 32 92 55 -5 8 -106 11 -329 11 -341 0 -422
7 -502 44 l-50 23 140 7 c151 8 442 29 648 48 l127 11 0 26 c0 40 24 67 94
106 68 38 112 76 121 105 3 10 -17 79 -44 153 -51 140 -95 277 -89 282 2 1 91
49 198 105 107 56 199 106 205 111 19 18 34 7 115 -91 375 -454 975 -784 1645
-904 280 -51 333 -74 550 -238 83 -63 176 -126 208 -141 121 -57 320 -94 432
-81 49 6 56 9 53 27 -5 37 -56 55 -197 72 -87 10 -146 22 -172 35 -51 26 -52
45 -1 36 245 -41 570 -27 901 40 146 29 165 37 157 67 -19 65 -18 75 4 87 12
7 61 18 107 26 82 13 133 34 133 54 0 19 -46 40 -88 40 -24 0 -93 -13 -155
-29 -99 -25 -136 -30 -312 -35 -110 -3 -231 -10 -270 -16 -103 -14 -310 -12
-386 4 -105 23 -224 94 -205 124 3 6 36 15 73 22 162 28 322 40 678 51 264 8
382 15 387 23 4 6 5 20 1 31 -18 57 -14 60 73 60 113 0 149 33 82 76 -28 17
-44 20 -108 15 -41 -2 -154 -9 -250 -15 -249 -16 -322 -26 -467 -70 -154 -46
-253 -63 -309 -52 -46 9 -105 40 -111 58 -5 15 179 75 317 102 208 42 315 53
560 58 241 5 247 4 345 -21 56 -15 111 -24 126 -21 28 6 77 51 67 61 -12 11
-153 43 -238 53 -95 12 -399 13 -595 2 -71 -4 -131 -7 -133 -6 -1 2 3 14 9 29
20 43 2 51 -119 51 -80 0 -115 -4 -137 -17 -37 -19 -60 -45 -69 -75 -7 -21 -4
-23 26 -23 18 0 55 7 82 15 54 17 126 20 126 6 0 -10 -123 -56 -190 -71 -25
-5 -65 -10 -90 -10 l-46 0 4 35 c5 45 -9 50 -85 35 -84 -18 -149 -49 -286
-139 -67 -44 -143 -89 -168 -100 -94 -42 -234 -38 -394 11 -100 31 -780 373
-906 457 -229 151 -455 459 -490 667 -11 61 -10 78 9 152 12 46 51 156 86 245
36 90 72 190 81 222 20 78 56 528 57 720 1 168 -12 266 -88 640 -52 253 -112
507 -179 749 -25 92 -45 169 -43 171 2 1 37 10 78 20 137 32 343 106 479 171
459 220 708 534 761 958 14 105 8 309 -10 401 -14 67 -62 137 -135 192 -113
86 -195 115 -498 173 -334 64 -416 158 -511 590 -62 278 -65 288 -124 370
-147 205 -261 420 -377 715 -111 281 -160 430 -175 530 -13 91 -9 112 55 290
l36 100 -4 185 c-3 138 -9 199 -21 238 -16 51 -19 53 -44 47 -115 -27 -229
-129 -362 -325 -46 -69 -105 -148 -131 -175 l-47 -50 -71 5 c-108 8 -104 0
-112 258 -4 119 -12 233 -18 253 -22 72 -77 131 -132 144 -24 6 -34 -2 -85
-62z m1443 -2200 c63 -29 107 -126 84 -186 -7 -19 -18 -27 -34 -27 -78 0 -118
-116 -83 -234 l14 -46 -28 -15 c-79 -41 -151 17 -186 150 -59 222 78 432 233
358z m-3939 -2698 c39 -9 72 -18 72 -20 0 -2 -18 -75 -40 -162 -21 -87 -49
-208 -61 -270 l-22 -111 -39 25 c-113 75 -226 22 -364 -171 -60 -83 -64 -87
-64 -57 0 38 24 87 86 176 51 72 64 126 44 175 -7 16 -20 30 -29 30 -36 0
-131 -68 -219 -157 -52 -52 -96 -92 -99 -90 -2 3 4 26 15 51 14 30 54 78 122
143 96 92 140 151 140 188 0 11 -11 15 -47 15 -67 0 -147 -40 -276 -139 -99
-75 -107 -79 -107 -56 0 37 56 92 182 180 62 42 128 91 145 108 l32 30 144
-18 c121 -15 153 -16 196 -5 63 15 69 24 34 47 -21 14 -56 19 -152 23 -69 3
-135 11 -146 17 -18 11 -16 14 28 33 26 12 66 25 90 30 61 13 250 5 335 -15z
m-628 -10 c-8 -9 -11 -30 -7 -55 4 -30 2 -40 -9 -40 -7 0 -60 -19 -116 -41
-57 -23 -127 -50 -156 -60 -49 -17 -52 -17 -43 -1 24 46 117 116 214 163 108
51 139 61 117 34z"/>
<path d="M5006 9688 c-2 -7 -9 -33 -16 -58 -14 -51 -54 -131 -135 -270 -55
-95 -86 -165 -100 -227 -17 -80 67 -5 115 102 31 69 55 105 72 105 14 0 8 -73
-12 -130 -18 -55 -18 -55 2 -89 26 -42 27 -41 72 121 35 122 36 133 36 292 0
142 -2 166 -15 166 -9 0 -17 -6 -19 -12z"/>
<path d="M4030 9588 c0 -48 -51 -209 -110 -348 -90 -212 -125 -310 -110 -310
39 0 118 126 160 255 23 71 66 165 75 165 3 0 5 -84 4 -188 -2 -144 1 -194 12
-217 19 -40 30 -38 54 10 17 34 20 66 23 219 4 187 -5 285 -37 379 -15 43 -22
53 -44 55 -22 3 -27 -1 -27 -20z"/>
<path d="M4600 8241 c-48 -15 -86 -40 -127 -81 -41 -40 -91 -126 -80 -136 9
-9 68 26 133 77 70 55 136 88 177 89 33 0 35 14 4 35 -30 19 -75 26 -107 16z"/>
<path d="M4675 7727 c-68 -23 -100 -44 -151 -100 -210 -229 -218 -638 -15
-724 100 -42 233 -34 348 22 97 48 138 96 146 173 3 31 18 107 33 167 43 179
24 295 -63 382 -75 75 -206 110 -298 80z m143 -78 c86 -43 145 -119 159 -205
5 -31 4 -34 -20 -34 -34 0 -86 -45 -108 -95 -37 -81 -18 -170 43 -201 l33 -17
-55 -50 c-100 -91 -186 -109 -287 -63 -145 68 -178 307 -71 508 38 71 122 151
180 171 58 21 57 21 126 -14z"/>
<path d="M3938 4664 c-64 -15 -146 -53 -195 -91 -38 -28 -42 -56 -13 -93 11
-14 20 -30 20 -37 0 -7 -43 -45 -96 -85 -119 -88 -183 -178 -154 -213 15 -18
55 -19 113 -3 101 27 95 -14 -14 -93 -97 -71 -112 -107 -63 -156 33 -33 75
-28 182 20 88 41 122 52 122 40 0 -5 -28 -35 -61 -68 -83 -80 -120 -167 -90
-214 15 -23 97 12 176 74 153 121 190 146 193 135 5 -13 -31 -67 -95 -141 -80
-93 -98 -160 -58 -213 14 -19 15 -18 52 6 21 14 72 56 113 93 108 97 167 143
222 171 l48 24 77 -47 c43 -26 142 -88 220 -139 165 -108 317 -198 368 -220
l36 -15 -17 33 c-46 89 -157 175 -424 326 -80 45 -172 102 -204 127 l-59 44
-46 -33 c-183 -134 -256 -184 -260 -180 -2 2 16 24 40 49 53 53 163 231 155
251 -8 21 -90 18 -134 -5 -20 -11 -70 -49 -110 -85 -71 -64 -129 -103 -139
-93 -10 10 29 55 117 136 101 93 132 130 155 185 l16 39 -45 -6 c-55 -8 -117
-38 -214 -105 -66 -45 -156 -81 -170 -67 -11 11 47 59 176 146 131 89 191 140
212 179 9 17 7 22 -15 30 -15 6 -45 10 -68 10 -41 -1 -62 -9 -200 -83 -64 -35
-144 -51 -135 -28 2 5 48 46 103 90 115 93 212 146 305 165 61 12 65 14 62 38
-3 21 2 26 29 32 122 24 243 -10 449 -126 196 -110 239 -130 333 -152 43 -10
34 21 -23 76 -92 88 -407 225 -620 268 -115 24 -285 26 -372 4z m-53 -134
c-44 -46 -91 -35 -48 12 9 10 30 18 46 18 l31 0 -29 -30z"/>
<path d="M2150 1022 c0 -19 57 -58 119 -81 54 -19 61 -25 55 -43 -3 -11 -3
-39 0 -62 l7 -42 116 -54 c64 -30 111 -56 105 -58 -6 -2 -74 8 -152 23 -99 19
-154 24 -187 19 -41 -6 -44 -8 -28 -20 52 -38 299 -110 489 -143 l110 -20 43
40 c43 39 58 43 138 40 l30 -2 -31 29 c-21 20 -69 42 -140 66 -153 51 -159 58
-39 49 55 -4 141 -8 190 -7 89 0 195 19 195 34 0 4 -19 16 -42 25 -31 12 -93
20 -218 27 -177 9 -259 24 -295 53 -13 11 -15 15 -4 12 110 -34 341 -34 386
-1 15 11 28 24 30 30 2 5 -36 10 -85 11 -48 2 -185 19 -302 39 -224 38 -490
57 -490 36z"/>
<path d="M3100 414 c-122 -19 -234 -57 -227 -78 6 -20 71 -46 113 -46 23 0 94
14 157 30 64 17 125 30 136 30 29 0 16 25 -22 43 -35 16 -117 27 -157 21z"/>
<path d="M4865 304 c-259 -53 -357 -66 -555 -73 -180 -7 -211 -10 -254 -29
-86 -39 -54 -46 216 -46 328 0 537 32 707 110 45 20 52 26 41 39 -15 18 -61
18 -155 -1z"/>
<path d="M2397 269 c-9 -6 -17 -21 -17 -34 0 -25 27 -37 155 -69 142 -35 365
-44 438 -17 20 8 19 10 -19 29 -51 26 -127 39 -283 47 -118 7 -222 25 -246 45
-6 5 -17 4 -28 -1z"/>
<path d="M3744 155 c-4 -9 -2 -21 3 -26 15 -15 265 -75 383 -93 58 -8 163 -21
233 -28 112 -10 132 -10 155 3 15 8 26 19 24 24 -8 28 -201 66 -502 100 -124
14 -240 28 -257 31 -25 5 -34 2 -39 -11z"/>
</g>
</svg>
